<?xml version="1.0" encoding="UTF-8" standalone="no"?>
<!DOCTYPE svg PUBLIC "-//W3C//DTD SVG 1.1//EN" "http://www.w3.org/Graphics/SVG/1.1/DTD/svg11.dtd">
<svg height="100%" stroke-miterlimit="10" style="fill-rule:nonzero;clip-rule:evenodd;stroke-linecap:round;stroke-linejoin:round;" version="1.1" viewBox="2.27374e-13 1.13687e-13 3000 3000" width="100%" xml:space="preserve" xmlns="http://www.w3.org/2000/svg" xmlns:vectornator="http://vectornator.io" xmlns:xlink="http://www.w3.org/1999/xlink">
<defs/>
<g id="Layer">
<path d="M1500 1.13687e-13C671.573 1.13687e-13 2.27374e-13 671.573 2.27374e-13 1500C2.27374e-13 2321.15 659.846 2988.06 1478.22 2999.72C1485.48 2999.82 1492.72 3000 1500 3000C2328.43 3000 3000 2328.43 3000 1500C3000 678.855 2340.15 11.9442 1521.78 0.28125C1514.52 0.177825 1507.28 1.13687e-13 1500 1.13687e-13ZM1500 250C1757.38 250 1974.23 422.939 2041.09 658.906C1885.12 558.357 1699.37 500 1500 500C947.715 500 500 947.715 500 1500C500 1721.09 571.797 1925.38 693.281 2090.94C689.526 2122.61 687.5 2154.81 687.5 2187.5C687.5 2298.23 709.73 2403.74 749.844 2499.94C446.325 2271.88 250 1908.88 250 1500C250 809.644 809.644 250 1500 250ZM2250.16 500.063C2553.67 728.122 2750 1091.12 2750 1500C2750 2190.36 2190.36 2750 1500 2750C1242.62 2750 1025.77 2577.06 958.906 2341.09C1114.88 2441.64 1300.63 2500 1500 2500C2052.28 2500 2500 2052.28 2500 1500C2500 1278.91 2428.2 1074.62 2306.72 909.062C2307.13 905.576 2307.54 902.091 2307.91 898.594C2308.28 895.08 2308.64 891.558 2308.97 888.031C2309.39 883.427 2309.75 878.814 2310.09 874.188C2310.37 870.48 2310.68 866.784 2310.91 863.062C2311.23 857.792 2311.46 852.484 2311.69 847.188C2311.82 844.019 2312 840.865 2312.09 837.688C2312.35 829.317 2312.5 820.933 2312.5 812.5C2312.5 701.767 2290.27 596.259 2250.16 500.063Z" fill="#000000" fill-rule="nonzero" opacity="1" stroke="none"/>
</g>
</svg>
