<?xml version="1.0" encoding="UTF-8" standalone="no"?>
<!DOCTYPE svg PUBLIC "-//W3C//DTD SVG 1.1//EN" "http://www.w3.org/Graphics/SVG/1.1/DTD/svg11.dtd">
<svg height="100%" stroke-miterlimit="10" style="fill-rule:nonzero;clip-rule:evenodd;stroke-linecap:round;stroke-linejoin:round;" version="1.1" viewBox="406.8 1210.8 2149.8 573.48" width="100%" xml:space="preserve" xmlns="http://www.w3.org/2000/svg" xmlns:vectornator="http://vectornator.io" xmlns:xlink="http://www.w3.org/1999/xlink">
<defs/>
<g id="Layer">
<g opacity="1">
<path d="M903.6 1364.4C905.6 1363.6 908.9 1366.5 913.5 1373.1C918.1 1379.7 922.3 1387.1 926.1 1395.3C929.9 1403.5 932.7 1411.1 934.5 1418.1C936.3 1425.1 935.4 1428.6 931.8 1428.6L823.2 1427.4C821.6 1447.8 818.1 1466.2 812.7 1482.6C807.3 1499 802.6 1511.2 798.6 1519.2C795.8 1522.4 791.8 1524.6 786.6 1525.8C781.4 1527 777 1527.2 773.4 1526.4C772.2 1522 770.7 1516.9 768.9 1511.1C767.1 1505.3 765.5 1498 764.1 1489.2C762.7 1480.4 761.4 1469.6 760.2 1456.8C759 1444 758.4 1428.6 758.4 1410.6L758.4 1275.6C758.4 1272 755.8 1267.8 750.6 1263C745.4 1258.2 739.4 1253.4 732.6 1248.6C725.8 1243.8 718.8 1239.5 711.6 1235.7C704.4 1231.9 699 1229 695.4 1227C694.6 1226.6 694.6 1225.5 695.4 1223.7C696.2 1221.9 697.5 1220.1 699.3 1218.3C701.1 1216.5 702.9 1214.8 704.7 1213.2C706.5 1211.6 707.8 1210.8 708.6 1210.8C716.2 1210.8 726.8 1211.8 740.4 1213.8C754 1215.8 767.2 1218.4 780 1221.6C792.8 1224.8 803.8 1228.4 813 1232.4C822.2 1236.4 826.6 1240.2 826.2 1243.8C825.4 1248.2 824.8 1253.2 824.4 1258.8C824 1264.4 823.8 1270.4 823.8 1276.8L823.8 1396.8L903.6 1364.4ZM675.6 1389C675.6 1404.6 672.4 1418.7 666 1431.3C659.6 1443.9 650.5 1454.7 638.7 1463.7C626.9 1472.7 612.8 1479.6 596.4 1484.4C580 1489.2 561.8 1491.6 541.8 1491.6C521.4 1491.6 502.9 1489.2 486.3 1484.4C469.7 1479.6 455.5 1472.7 443.7 1463.7C431.9 1454.7 422.8 1443.9 416.4 1431.3C410 1418.7 406.8 1404.6 406.8 1389C406.8 1374.6 409.7 1361.3 415.5 1349.1C421.3 1336.9 429.5 1326.3 440.1 1317.3C450.7 1308.3 463.4 1301.2 478.2 1296C493 1290.8 509.6 1287.6 528 1286.4C528.8 1283.2 529.2 1281.2 529.2 1280.4C529.2 1277.2 528.5 1274 527.1 1270.8C525.7 1267.6 522.8 1264.4 518.4 1261.2C518.4 1257.6 520.8 1255.7 525.6 1255.5C530.4 1255.3 535.8 1255.8 541.8 1257C547.8 1258.2 553.2 1260 558 1262.4C562.8 1264.8 565.2 1267 565.2 1269C565.2 1270.6 564.5 1273.1 563.1 1276.5C561.7 1279.9 560.4 1283.2 559.2 1286.4C594.4 1289.2 622.6 1299.8 643.8 1318.2C665 1336.6 675.6 1360.2 675.6 1389ZM472.8 1387.2C472.8 1408 479 1424.6 491.4 1437C503.8 1449.4 519.6 1455.6 538.8 1455.6C560 1455.6 577.1 1449.4 590.1 1437C603.1 1424.6 609.6 1408 609.6 1387.2C609.6 1366.8 603.3 1350.4 590.7 1338C578.1 1325.6 561.4 1319.4 540.6 1319.4C520.6 1319.4 504.3 1325.6 491.7 1338C479.1 1350.4 472.8 1366.8 472.8 1387.2ZM811.8 1705.2C813.4 1705.2 816.7 1707.2 821.7 1711.2C826.7 1715.2 831.9 1719.9 837.3 1725.3C842.7 1730.7 847.4 1736.5 851.4 1742.7C855.4 1748.9 857.4 1754 857.4 1758C857.4 1761.2 855 1762.8 850.2 1762.8L586.8 1762.8C563.6 1762.8 547.4 1758.8 538.2 1750.8C529 1742.8 524 1729.8 523.2 1711.8L522 1666.2C522 1662.6 518.5 1658.8 511.5 1654.8C504.5 1650.8 498 1647.8 492 1645.8C491.6 1643.8 493.3 1640.7 497.1 1636.5C500.9 1632.3 504.4 1630.2 507.6 1630.2C510.8 1630.2 515.9 1630.4 522.9 1630.8C529.9 1631.2 537.5 1631.7 545.7 1632.3C553.9 1632.9 561.8 1633.8 569.4 1635C577 1636.2 583.2 1637.6 588 1639.2L747 1639.2L748.2 1586.4L606.6 1586.4C594.2 1586.4 583.9 1587.8 575.7 1590.6C567.5 1593.4 561.4 1596.4 557.4 1599.6C552.6 1598.4 546.9 1595.8 540.3 1591.8C533.7 1587.8 527.4 1583.5 521.4 1578.9C515.4 1574.3 510.2 1570 505.8 1566C501.4 1562 499 1559 498.6 1557C498.2 1555.8 498.8 1553.9 500.4 1551.3C502 1548.7 503.4 1547.6 504.6 1548C507.4 1548.8 512 1549.5 518.4 1550.1C524.8 1550.7 532.2 1551.2 540.6 1551.6C549 1552 558.2 1552.3 568.2 1552.5C578.2 1552.7 588.2 1552.8 598.2 1552.8L721.8 1552.8C731.8 1552.8 739.7 1551.8 745.5 1549.8C751.3 1547.8 756 1544.8 759.6 1540.8C761.6 1540.8 766.1 1541.2 773.1 1542C780.1 1542.8 787.2 1544 794.4 1545.6C801.6 1547.2 808 1549 813.6 1551C819.2 1553 821.8 1555 821.4 1557L804 1636.2C810.8 1640.6 816 1646.2 819.6 1653C823.2 1659.8 825 1664.2 825 1666.2C825 1670.2 823.2 1672.2 819.6 1672.2L588 1672.2L588 1701C588 1712.6 590.4 1720.2 595.2 1723.8C600 1727.4 610.2 1729.2 625.8 1729.2L748.8 1729.2C759.6 1729.2 768.6 1728 775.8 1725.6C783 1723.2 789 1720.5 793.8 1717.5C798.6 1714.5 802.4 1711.7 805.2 1709.1C808 1706.5 810.2 1705.2 811.8 1705.2Z" fill="#000000" fill-rule="nonzero" opacity="1" stroke="none"/>
<path d="M1185.6 1476.6C1163.6 1476.6 1143.6 1474 1125.6 1468.8C1107.6 1463.6 1092.2 1456.2 1079.4 1446.6C1066.6 1437 1056.7 1425.4 1049.7 1411.8C1042.7 1398.2 1039.2 1383 1039.2 1366.2C1039.2 1350.6 1042.3 1336.2 1048.5 1323C1054.7 1309.8 1063.6 1298.4 1075.2 1288.8C1086.8 1279.2 1100.8 1271.5 1117.2 1265.7C1133.6 1259.9 1151.8 1256.4 1171.8 1255.2C1172.6 1252 1173 1250 1173 1249.2C1173 1246 1172.3 1242.8 1170.9 1239.6C1169.5 1236.4 1166.6 1233.2 1162.2 1230C1162.2 1226.4 1164.6 1224.5 1169.4 1224.3C1174.2 1224.1 1179.6 1224.6 1185.6 1225.8C1191.6 1227 1197 1228.8 1201.8 1231.2C1206.6 1233.6 1209 1235.8 1209 1237.8C1209 1239.4 1208.3 1241.9 1206.9 1245.3C1205.5 1248.7 1204.2 1252 1203 1255.2C1222.2 1256.4 1239.7 1260 1255.5 1266C1271.3 1272 1284.8 1279.8 1296 1289.4C1307.2 1299 1315.8 1310.3 1321.8 1323.3C1327.8 1336.3 1330.8 1350.6 1330.8 1366.2C1330.8 1383 1327.3 1398.2 1320.3 1411.8C1313.3 1425.4 1303.5 1437 1290.9 1446.6C1278.3 1456.2 1263 1463.6 1245 1468.8C1227 1474 1207.2 1476.6 1185.6 1476.6ZM1184.4 1288.2C1161.2 1288.2 1142.6 1295.2 1128.6 1309.2C1114.6 1323.2 1107.6 1341.6 1107.6 1364.4C1107.6 1387.2 1114.4 1405.6 1128 1419.6C1141.6 1433.6 1159.8 1440.6 1182.6 1440.6C1206.6 1440.6 1225.9 1433.6 1240.5 1419.6C1255.1 1405.6 1262.4 1387.2 1262.4 1364.4C1262.4 1341.6 1255.3 1323.2 1241.1 1309.2C1226.9 1295.2 1208 1288.2 1184.4 1288.2ZM1414.2 1500.6C1415.8 1500.6 1419.1 1502.6 1424.1 1506.6C1429.1 1510.6 1434.3 1515.4 1439.7 1521C1445.1 1526.6 1449.8 1532.5 1453.8 1538.7C1457.8 1544.9 1459.8 1550 1459.8 1554C1459.8 1557.2 1457.4 1558.8 1452.6 1558.8L1222.2 1558.8L1222.2 1623C1222.2 1641 1221.3 1658.1 1219.5 1674.3C1217.7 1690.5 1215.4 1705.2 1212.6 1718.4C1209.8 1731.6 1207 1743.2 1204.2 1753.2C1201.4 1763.2 1198.8 1770.8 1196.4 1776C1193.6 1779.2 1189.6 1781.4 1184.4 1782.6C1179.2 1783.8 1174.8 1784 1171.2 1783.2C1168.8 1774.8 1165.6 1759.9 1161.6 1738.5C1157.6 1717.1 1155.6 1687.2 1155.6 1648.8L1155.6 1559.4L1020 1559.4C1007.2 1559.4 996.7 1560.8 988.5 1563.6C980.3 1566.4 974.4 1569.4 970.8 1572.6C966 1571.4 960.3 1568.8 953.7 1564.8C947.1 1560.8 940.8 1556.5 934.8 1551.9C928.8 1547.3 923.6 1543 919.2 1539C914.8 1535 912.4 1532 912 1530C911.6 1528.8 912.1 1526.9 913.5 1524.3C914.9 1521.7 916.4 1520.6 918 1521C920.8 1521.8 925.4 1522.5 931.8 1523.1C938.2 1523.7 945.6 1524.2 954 1524.6C962.4 1525 971.6 1525.3 981.6 1525.5C991.6 1525.7 1001.6 1525.8 1011.6 1525.8L1351.2 1524.6C1362 1524.6 1371 1523.4 1378.2 1521C1385.4 1518.6 1391.4 1515.9 1396.2 1512.9C1401 1509.9 1404.8 1507.1 1407.6 1504.5C1410.4 1501.9 1412.6 1500.6 1414.2 1500.6Z" fill="#000000" fill-rule="nonzero" opacity="1" stroke="none"/>
<path d="M1819.8 1210.8C1827.8 1210.8 1838.5 1211.8 1851.9 1213.8C1865.3 1215.8 1878.5 1218.4 1891.5 1221.6C1904.5 1224.8 1915.6 1228.4 1924.8 1232.4C1934 1236.4 1938.4 1240.2 1938 1243.8C1937.2 1248.2 1936.6 1253.2 1936.2 1258.8C1935.8 1264.4 1935.6 1270.4 1935.6 1276.8L1935.6 1585.2C1935.6 1610 1934.7 1632.8 1932.9 1653.6C1931.1 1674.4 1928.8 1693.1 1926 1709.7C1923.2 1726.3 1920.4 1740.3 1917.6 1751.7C1914.8 1763.1 1912.2 1771.4 1909.8 1776.6C1907 1779.8 1903.1 1782 1898.1 1783.2C1893.1 1784.4 1888.6 1784.6 1884.6 1783.8C1882.2 1775.4 1879.1 1758 1875.3 1731.6C1871.5 1705.2 1869.6 1669.6 1869.6 1624.8L1869.6 1570.2C1842 1581 1812.7 1590.4 1781.7 1598.4C1750.7 1606.4 1720.8 1612.9 1692 1617.9C1663.2 1622.9 1637.2 1626.6 1614 1629C1590.8 1631.4 1573.2 1632.6 1561.2 1632.6C1557.2 1632.6 1553 1631.6 1548.6 1629.6C1544.2 1627.6 1540.1 1624.4 1536.3 1620C1532.5 1615.6 1529.3 1609.9 1526.7 1602.9C1524.1 1595.9 1522.8 1587.2 1522.8 1576.8L1522.8 1470C1522.8 1468.4 1521.7 1466.6 1519.5 1464.6C1517.3 1462.6 1514.7 1460.7 1511.7 1458.9C1508.7 1457.1 1505.3 1455.4 1501.5 1453.8C1497.7 1452.2 1494.4 1450.8 1491.6 1449.6C1491.2 1447.6 1492.9 1444.6 1496.7 1440.6C1500.5 1436.6 1504 1434.6 1507.2 1434.6C1510.4 1434.6 1515.6 1434.8 1522.8 1435.2C1530 1435.6 1537.6 1436.1 1545.6 1436.7C1553.6 1437.3 1561.5 1438.1 1569.3 1439.1C1577.1 1440.1 1583.4 1441.4 1588.2 1443L1698 1443L1701.6 1344.6L1605.6 1344.6C1593.2 1344.6 1582.9 1346 1574.7 1348.8C1566.5 1351.6 1560.4 1354.6 1556.4 1357.8C1551.6 1356.6 1546 1354 1539.6 1350C1533.2 1346 1527.1 1341.7 1521.3 1337.1C1515.5 1332.5 1510.4 1328.1 1506 1323.9C1501.6 1319.7 1499 1316.8 1498.2 1315.2C1497.4 1314 1497.8 1312.1 1499.4 1309.5C1501 1306.9 1502.4 1305.8 1503.6 1306.2C1506.4 1307 1511 1307.7 1517.4 1308.3C1523.8 1308.9 1531.2 1309.4 1539.6 1309.8C1548 1310.2 1557.2 1310.5 1567.2 1310.7C1577.2 1310.9 1587.2 1311 1597.2 1311L1671.6 1311C1681.2 1311 1688.9 1310 1694.7 1308C1700.5 1306 1705.2 1303.2 1708.8 1299.6C1710.8 1299.6 1715.6 1300 1723.2 1300.8C1730.8 1301.6 1738.7 1302.7 1746.9 1304.1C1755.1 1305.5 1762.4 1307.2 1768.8 1309.2C1775.2 1311.2 1778.2 1313.2 1777.8 1315.2L1756.8 1440C1763.2 1444.4 1768.3 1449.9 1772.1 1456.5C1775.9 1463.1 1777.8 1467.4 1777.8 1469.4C1777.8 1473.4 1775.8 1475.4 1771.8 1475.4L1588.2 1475.4L1588.2 1579.8C1613.8 1579.4 1640.1 1577.9 1667.1 1575.3C1694.1 1572.7 1720.1 1569.4 1745.1 1565.4C1770.1 1561.4 1793.4 1557.2 1815 1552.8C1836.6 1548.4 1854.8 1544.4 1869.6 1540.8L1869.6 1275.6C1869.6 1272 1867 1267.8 1861.8 1263C1856.6 1258.2 1850.6 1253.4 1843.8 1248.6C1837 1243.8 1830 1239.5 1822.8 1235.7C1815.6 1231.9 1810.2 1229 1806.6 1227C1805.8 1226.6 1805.8 1225.5 1806.6 1223.7C1807.4 1221.9 1808.7 1220.1 1810.5 1218.3C1812.3 1216.5 1814.1 1214.8 1815.9 1213.2C1817.7 1211.6 1819 1210.8 1819.8 1210.8Z" fill="#000000" fill-rule="nonzero" opacity="1" stroke="none"/>
<path d="M2524.8 1364.4C2526.8 1363.6 2530.1 1366.5 2534.7 1373.1C2539.3 1379.7 2543.5 1387.1 2547.3 1395.3C2551.1 1403.5 2553.9 1411.1 2555.7 1418.1C2557.5 1425.1 2556.6 1428.6 2553 1428.6L2444.4 1427.4C2442.8 1447.8 2439.3 1466.2 2433.9 1482.6C2428.5 1499 2423.8 1511.2 2419.8 1519.2C2417 1522.4 2413 1524.6 2407.8 1525.8C2402.6 1527 2398.2 1527.2 2394.6 1526.4C2393.4 1522 2391.9 1516.9 2390.1 1511.1C2388.3 1505.3 2386.7 1498 2385.3 1489.2C2383.9 1480.4 2382.6 1469.6 2381.4 1456.8C2380.2 1444 2379.6 1428.6 2379.6 1410.6L2379.6 1275.6C2379.6 1272 2377 1267.8 2371.8 1263C2366.6 1258.2 2360.6 1253.4 2353.8 1248.6C2347 1243.8 2340 1239.5 2332.8 1235.7C2325.6 1231.9 2320.2 1229 2316.6 1227C2315.8 1226.6 2315.8 1225.5 2316.6 1223.7C2317.4 1221.9 2318.7 1220.1 2320.5 1218.3C2322.3 1216.5 2324.1 1214.8 2325.9 1213.2C2327.7 1211.6 2329 1210.8 2329.8 1210.8C2337.4 1210.8 2348 1211.8 2361.6 1213.8C2375.2 1215.8 2388.4 1218.4 2401.2 1221.6C2414 1224.8 2425 1228.4 2434.2 1232.4C2443.4 1236.4 2447.8 1240.2 2447.4 1243.8C2446.6 1248.2 2446 1253.2 2445.6 1258.8C2445.2 1264.4 2445 1270.4 2445 1276.8L2445 1396.8L2524.8 1364.4ZM2100 1482.6C2096.4 1492.2 2091 1500.6 2083.8 1507.8C2080.6 1511 2076.6 1513.3 2071.8 1514.7C2067 1516.1 2062.4 1516.4 2058 1515.6C2054.8 1507.2 2051.9 1493.1 2049.3 1473.3C2046.7 1453.5 2044.2 1431.2 2041.8 1406.4L2033.4 1327.8C2033.4 1326.2 2032.2 1324.1 2029.8 1321.5C2027.4 1318.9 2024.6 1316.3 2021.4 1313.7C2018.2 1311.1 2014.8 1308.8 2011.2 1306.8C2007.6 1304.8 2004.4 1303.2 2001.6 1302C2001.6 1300.8 2002 1299.4 2002.8 1297.8C2003.6 1296.2 2004.8 1294.5 2006.4 1292.7C2008 1290.9 2009.6 1289.4 2011.2 1288.2C2012.8 1287 2014.2 1286.4 2015.4 1286.4C2018.2 1286.4 2022.8 1286.5 2029.2 1286.7C2035.6 1286.9 2042.7 1287.3 2050.5 1287.9C2058.3 1288.5 2066.3 1289.2 2074.5 1290C2082.7 1290.8 2090.2 1291.8 2097 1293L2204.4 1293C2214.4 1293 2222.2 1292.2 2227.8 1290.6C2233.4 1289 2238 1286.6 2241.6 1283.4C2243.6 1282.6 2248 1282.5 2254.8 1283.1C2261.6 1283.7 2268.5 1284.7 2275.5 1286.1C2282.5 1287.5 2288.8 1289.2 2294.4 1291.2C2300 1293.2 2302.6 1295.2 2302.2 1297.2L2279.4 1442.4C2281.8 1444.4 2284.3 1447 2286.9 1450.2C2289.5 1453.4 2292 1456.6 2294.4 1459.8C2296.8 1463 2298.7 1466.2 2300.1 1469.4C2301.5 1472.6 2302.2 1475.4 2302.2 1477.8C2302.2 1481.4 2299.8 1483.2 2295 1483.2C2291.8 1483.2 2284 1483.1 2271.6 1482.9C2259.2 1482.7 2243.4 1482.6 2224.2 1482.6L2100 1482.6ZM2226 1327.2L2106 1327.2L2106 1447.8L2221.8 1447.8L2226 1327.2ZM2433 1705.2C2434.6 1705.2 2437.9 1707.2 2442.9 1711.2C2447.9 1715.2 2453.1 1719.9 2458.5 1725.3C2463.9 1730.7 2468.6 1736.5 2472.6 1742.7C2476.6 1748.9 2478.6 1754 2478.6 1758C2478.6 1761.2 2476.2 1762.8 2471.4 1762.8L2208 1762.8C2184.8 1762.8 2168.6 1758.8 2159.4 1750.8C2150.2 1742.8 2145.2 1729.8 2144.4 1711.8L2143.2 1666.2C2143.2 1662.6 2139.7 1658.8 2132.7 1654.8C2125.7 1650.8 2119.2 1647.8 2113.2 1645.8C2112.8 1643.8 2114.5 1640.7 2118.3 1636.5C2122.1 1632.3 2125.6 1630.2 2128.8 1630.2C2132 1630.2 2137.1 1630.4 2144.1 1630.8C2151.1 1631.2 2158.7 1631.7 2166.9 1632.3C2175.1 1632.9 2183 1633.8 2190.6 1635C2198.2 1636.2 2204.4 1637.6 2209.2 1639.2L2368.2 1639.2L2369.4 1586.4L2227.8 1586.4C2215.4 1586.4 2205.1 1587.8 2196.9 1590.6C2188.7 1593.4 2182.6 1596.4 2178.6 1599.6C2173.8 1598.4 2168.1 1595.8 2161.5 1591.8C2154.9 1587.8 2148.6 1583.5 2142.6 1578.9C2136.6 1574.3 2131.4 1570 2127 1566C2122.6 1562 2120.2 1559 2119.8 1557C2119.4 1555.8 2120 1553.9 2121.6 1551.3C2123.2 1548.7 2124.6 1547.6 2125.8 1548C2128.6 1548.8 2133.2 1549.5 2139.6 1550.1C2146 1550.7 2153.4 1551.2 2161.8 1551.6C2170.2 1552 2179.4 1552.3 2189.4 1552.5C2199.4 1552.7 2209.4 1552.8 2219.4 1552.8L2343 1552.8C2353 1552.8 2360.9 1551.8 2366.7 1549.8C2372.5 1547.8 2377.2 1544.8 2380.8 1540.8C2382.8 1540.8 2387.3 1541.2 2394.3 1542C2401.3 1542.8 2408.4 1544 2415.6 1545.6C2422.8 1547.2 2429.2 1549 2434.8 1551C2440.4 1553 2443 1555 2442.6 1557L2425.2 1636.2C2432 1640.6 2437.2 1646.2 2440.8 1653C2444.4 1659.8 2446.2 1664.2 2446.2 1666.2C2446.2 1670.2 2444.4 1672.2 2440.8 1672.2L2209.2 1672.2L2209.2 1701C2209.2 1712.6 2211.6 1720.2 2216.4 1723.8C2221.2 1727.4 2231.4 1729.2 2247 1729.2L2370 1729.2C2380.8 1729.2 2389.8 1728 2397 1725.6C2404.2 1723.2 2410.2 1720.5 2415 1717.5C2419.8 1714.5 2423.6 1711.7 2426.4 1709.1C2429.2 1706.5 2431.4 1705.2 2433 1705.2Z" fill="#000000" fill-rule="nonzero" opacity="1" stroke="none"/>
</g>
</g>
</svg>
